<svg height="512pt" viewBox="-85 0 512 512" width="512pt" xmlns="http://www.w3.org/2000/svg"><path d="m341.722656 56.132812v399.746094c0 30.992188-25.128906 56.121094-56.132812 56.121094h-229.457032c-31.003906 0-56.132812-25.128906-56.132812-56.121094v-399.746094c0-31.003906 25.128906-56.132812 56.132812-56.132812h229.457032c31.003906 0 56.132812 25.128906 56.132812 56.132812zm0 0" fill="#273c47"/><path d="m341.722656 56.132812v399.746094c0 30.992188-25.128906 56.121094-56.132812 56.121094h-199.5c-31.003906 0-56.132813-25.128906-56.132813-56.121094v-399.746094c0-31.003906 25.128907-56.132812 56.132813-56.132812h199.5c31.003906 0 56.132812 25.128906 56.132812 56.132812zm0 0" fill="#405968"/><path d="m299.925781 95.65625v70.125c0 18.203125-14.757812 32.960938-32.960937 32.960938h-192.203125c-18.207031 0-32.964844-14.757813-32.964844-32.960938v-70.125c0-18.203125 14.757813-32.960938 32.964844-32.960938h192.203125c18.203125 0 32.960937 14.757813 32.960937 32.960938zm0 0" fill="#6adbbd"/><path d="m266.964844 206.578125h-192.203125c-22.496094 0-40.800781-18.304687-40.800781-40.796875v-70.125c0-22.496094 18.304687-40.796875 40.800781-40.796875h192.203125c22.496094 0 40.796875 18.300781 40.796875 40.796875v70.125c0 22.492188-18.300781 40.796875-40.796875 40.796875zm-192.203125-136.046875c-13.855469 0-25.125 11.273438-25.125 25.125v70.121094c0 13.855468 11.269531 25.125 25.125 25.125h192.203125c13.855468 0 25.125-11.269532 25.125-25.125v-70.121094c0-13.851562-11.269532-25.125-25.125-25.125zm0 0" fill="#273c47"/><g fill="#ddd3c3"><path d="m107.96875 256.667969v20.304687c0 8.304688-6.738281 15.046875-15.035156 15.046875h-36.101563c-8.296875 0-15.035156-6.742187-15.035156-15.046875v-20.304687c0-8.304688 6.738281-15.035157 15.035156-15.035157h36.101563c8.296875 0 15.035156 6.730469 15.035156 15.035157zm0 0"/><path d="m299.925781 256.667969v20.304687c0 8.304688-6.726562 15.046875-15.035156 15.046875h-36.089844c-8.308593 0-15.046875-6.742187-15.046875-15.046875v-20.304687c0-8.304688 6.738282-15.035157 15.046875-15.035157h36.089844c8.308594 0 15.035156 6.730469 15.035156 15.035157zm0 0"/><path d="m203.941406 256.667969v20.304687c0 8.304688-6.726562 15.046875-15.035156 15.046875h-36.089844c-8.308594 0-15.035156-6.742187-15.035156-15.046875v-20.304687c0-8.304688 6.726562-15.035157 15.035156-15.035157h36.089844c8.308594 0 15.035156 6.730469 15.035156 15.035157zm0 0"/><path d="m107.96875 409.171875v20.300781c0 8.308594-6.738281 15.039063-15.035156 15.039063h-36.101563c-8.296875 0-15.035156-6.730469-15.035156-15.039063v-20.300781c0-8.308594 6.738281-15.035156 15.035156-15.035156h36.101563c8.296875 0 15.035156 6.726562 15.035156 15.035156zm0 0"/><path d="m299.925781 409.171875v20.300781c0 8.308594-6.726562 15.039063-15.035156 15.039063h-36.089844c-8.308593 0-15.046875-6.730469-15.046875-15.039063v-20.300781c0-8.308594 6.738282-15.035156 15.046875-15.035156h36.089844c8.308594 0 15.035156 6.726562 15.035156 15.035156zm0 0"/><path d="m203.941406 409.171875v20.300781c0 8.308594-6.726562 15.039063-15.035156 15.039063h-36.089844c-8.308594 0-15.035156-6.730469-15.035156-15.039063v-20.300781c0-8.308594 6.726562-15.035156 15.035156-15.035156h36.089844c8.308594 0 15.035156 6.726562 15.035156 15.035156zm0 0"/><path d="m107.96875 332.925781v20.300781c0 8.308594-6.738281 15.039063-15.035156 15.039063h-36.101563c-8.296875 0-15.035156-6.730469-15.035156-15.039063v-20.300781c0-8.308593 6.738281-15.035156 15.035156-15.035156h36.101563c8.296875 0 15.035156 6.726563 15.035156 15.035156zm0 0"/><path d="m299.925781 332.925781v20.300781c0 8.308594-6.726562 15.039063-15.035156 15.039063h-36.089844c-8.308593 0-15.046875-6.730469-15.046875-15.039063v-20.300781c0-8.308593 6.738282-15.035156 15.046875-15.035156h36.089844c8.308594 0 15.035156 6.726563 15.035156 15.035156zm0 0"/><path d="m203.941406 332.925781v20.300781c0 8.308594-6.726562 15.039063-15.035156 15.039063h-36.089844c-8.308594 0-15.035156-6.730469-15.035156-15.039063v-20.300781c0-8.308593 6.726562-15.035156 15.035156-15.035156h36.089844c8.308594 0 15.035156 6.726563 15.035156 15.035156zm0 0"/></g><path d="m107.96875 256.667969v20.304687c0 8.304688-6.738281 15.046875-15.035156 15.046875h-24.179688c-8.304687 0-15.035156-6.742187-15.035156-15.046875v-20.304687c0-8.304688 6.730469-15.035157 15.035156-15.035157h24.179688c8.296875 0 15.035156 6.730469 15.035156 15.035157zm0 0" fill="#fff6e3"/><path d="m299.925781 256.667969v20.304687c0 8.304688-6.726562 15.046875-15.035156 15.046875h-24.179687c-8.304688 0-15.035157-6.742187-15.035157-15.046875v-20.304687c0-8.304688 6.730469-15.035157 15.035157-15.035157h24.179687c8.308594 0 15.035156 6.730469 15.035156 15.035157zm0 0" fill="#fff6e3"/><path d="m203.941406 256.667969v20.304687c0 8.304688-6.726562 15.046875-15.035156 15.046875h-24.179688c-8.304687 0-15.035156-6.742187-15.035156-15.046875v-20.304687c0-8.304688 6.730469-15.035157 15.035156-15.035157h24.179688c8.308594 0 15.035156 6.730469 15.035156 15.035157zm0 0" fill="#fff6e3"/><path d="m107.96875 409.171875v20.300781c0 8.308594-6.738281 15.039063-15.035156 15.039063h-24.179688c-8.304687 0-15.035156-6.730469-15.035156-15.039063v-20.300781c0-8.308594 6.730469-15.035156 15.035156-15.035156h24.179688c8.296875 0 15.035156 6.726562 15.035156 15.035156zm0 0" fill="#fff6e3"/><path d="m299.925781 409.171875v20.300781c0 8.308594-6.726562 15.039063-15.035156 15.039063h-24.179687c-8.304688 0-15.035157-6.730469-15.035157-15.039063v-20.300781c0-8.308594 6.730469-15.035156 15.035157-15.035156h24.179687c8.308594 0 15.035156 6.726562 15.035156 15.035156zm0 0" fill="#fff6e3"/><path d="m203.941406 409.171875v20.300781c0 8.308594-6.726562 15.039063-15.035156 15.039063h-24.179688c-8.304687 0-15.035156-6.730469-15.035156-15.039063v-20.300781c0-8.308594 6.730469-15.035156 15.035156-15.035156h24.179688c8.308594 0 15.035156 6.726562 15.035156 15.035156zm0 0" fill="#fff6e3"/><path d="m107.96875 332.925781v20.300781c0 8.308594-6.738281 15.039063-15.035156 15.039063h-24.179688c-8.304687 0-15.035156-6.730469-15.035156-15.039063v-20.300781c0-8.308593 6.730469-15.035156 15.035156-15.035156h24.179688c8.296875 0 15.035156 6.726563 15.035156 15.035156zm0 0" fill="#fff6e3"/><path d="m299.925781 332.925781v20.300781c0 8.308594-6.726562 15.039063-15.035156 15.039063h-24.179687c-8.304688 0-15.035157-6.730469-15.035157-15.039063v-20.300781c0-8.308593 6.730469-15.035156 15.035157-15.035156h24.179687c8.308594 0 15.035156 6.726563 15.035156 15.035156zm0 0" fill="#fff6e3"/><path d="m203.941406 332.925781v20.300781c0 8.308594-6.726562 15.039063-15.035156 15.039063h-24.179688c-8.304687 0-15.035156-6.730469-15.035156-15.039063v-20.300781c0-8.308593 6.730469-15.035156 15.035156-15.035156h24.179688c8.308594 0 15.035156 6.726563 15.035156 15.035156zm0 0" fill="#fff6e3"/><path d="m268.554688 151.859375-4.230469-24.835937c-3.0625-17.953126-17.859375-31.847657-35.984375-33.796876-38.136719-4.097656-76.8125-4.097656-114.953125 0-18.121094 1.949219-32.917969 15.84375-35.984375 33.796876l-4.234375 24.835937c-.824219 4.84375.519531 9.773437 3.6875 13.53125 3.167969 3.753906 7.804687 5.90625 12.714843 5.90625h31.878907c8.949219 0 16.25-7.003906 16.625-15.945313l.777343-18.621093c.042969-1.054688.824219-1.933594 1.851563-2.09375 20.015625-3.101563 40.304687-3.101563 60.316406 0 1.027344.160156 1.808594 1.042969 1.851563 2.09375l.777344 18.621093c.375 8.941407 7.675781 15.945313 16.625 15.945313h31.878906c4.910156 0 9.546875-2.152344 12.714844-5.90625 3.171874-3.757813 4.515624-8.6875 3.6875-13.53125zm-147.105469 7.945313h-31.875c-2.082031 0-3.359375-1.144532-3.933594-1.828126-.578125-.683593-1.492187-2.132812-1.140625-4.183593l.675781-3.972657h41.625l-.210937 5.050782c-.113282 2.765625-2.371094 4.933594-5.140625 4.933594zm81.332031-36.527344c-10.589844-1.640625-21.253906-2.460938-31.917969-2.460938-10.664062 0-21.328125.820313-31.917969 2.460938-6.433593.996094-11.300781 6.453125-11.578124 12.972656l-.085938 2.078125h-40.144531l1.597656-9.371094c2.203125-12.90625 12.84375-22.898437 25.878906-24.300781 37.328125-4.011719 75.175781-4.011719 112.5 0 13.035157 1.402344 23.679688 11.394531 25.878907 24.300781l1.597656 9.371094h-40.144532l-.089843-2.074219c-.273438-6.523437-5.140625-11.980468-11.574219-12.976562zm53.304688 34.699218c-.574219.683594-1.851563 1.828126-3.933594 1.828126h-31.875c-2.769532 0-5.027344-2.167969-5.144532-4.933594l-.210937-5.050782h41.628906l.675781 3.972657c.347657 2.050781-.566406 3.5-1.140624 4.183593zm0 0" fill="#4fbf9f"/><path d="m207.625 40.230469h-73.527344c-4.328125 0-7.839844-3.507813-7.839844-7.835938s3.511719-7.839843 7.839844-7.839843h73.527344c4.328125 0 7.839844 3.511718 7.839844 7.839843s-3.511719 7.835938-7.839844 7.835938zm0 0" fill="#273c47"/><path d="m178.765625 489.183594h-15.804687c-4.328126 0-7.839844-3.511719-7.839844-7.835938 0-4.328125 3.511718-7.839844 7.839844-7.839844h15.804687c4.328125 0 7.835937 3.511719 7.835937 7.839844 0 4.324219-3.507812 7.835938-7.835937 7.835938zm0 0" fill="#273c47"/></svg>